<?xml version="1.0" encoding="UTF-8"?>
<svg width="1200pt" height="1200pt" version="1.1" viewBox="0 0 1200 1200" xmlns="http://www.w3.org/2000/svg">
 <g fill="#fff">
  <path d="m150 50h100c55.227 0 100 55.227 100 100v100c0 55.227-44.773 100-100 100h-100c-55.227 0-100-55.227-100-100v-100c0-55.227 44.773-100 100-100z"/>
  <path d="m550 50h100c55.227 0 100 55.227 100 100v100c0 55.227-44.773 100-100 100h-100c-55.227 0-100-55.227-100-100v-100c0-55.227 44.773-100 100-100z"/>
  <path d="m950 50h100c55.227 0 100 55.227 100 100v100c0 55.227-44.773 100-100 100h-100c-55.227 0-100-55.227-100-100v-100c0-55.227 44.773-100 100-100z"/>
  <path d="m150 450h100c55.227 0 100 55.227 100 100v100c0 55.227-44.773 100-100 100h-100c-55.227 0-100-55.227-100-100v-100c0-55.227 44.773-100 100-100z"/>
  <path d="m550 450h100c55.227 0 100 55.227 100 100v100c0 55.227-44.773 100-100 100h-100c-55.227 0-100-55.227-100-100v-100c0-55.227 44.773-100 100-100z"/>
  <path d="m950 450h100c55.227 0 100 55.227 100 100v100c0 55.227-44.773 100-100 100h-100c-55.227 0-100-55.227-100-100v-100c0-55.227 44.773-100 100-100z"/>
  <path d="m150 850h100c55.227 0 100 55.227 100 100v100c0 55.227-44.773 100-100 100h-100c-55.227 0-100-55.227-100-100v-100c0-55.227 44.773-100 100-100z"/>
  <path d="m550 850h100c55.227 0 100 55.227 100 100v100c0 55.227-44.773 100-100 100h-100c-55.227 0-100-55.227-100-100v-100c0-55.227 44.773-100 100-100z"/>
  <path d="m950 850h100c55.227 0 100 55.227 100 100v100c0 55.227-44.773 100-100 100h-100c-55.227 0-100-55.227-100-100v-100c0-55.227 44.773-100 100-100z"/>
 </g>
</svg>
